<?xml version="1.0" encoding="UTF-8" standalone="no"?>
<svg xmlns:ffdec="https://www.free-decompiler.com/flash" xmlns:xlink="http://www.w3.org/1999/xlink" ffdec:objectType="frame" height="38.6px" width="27.75px" xmlns="http://www.w3.org/2000/svg">
  <g transform="matrix(1.0, 0.0, 0.0, 1.0, -0.3, 0.1)">
    <use ffdec:characterId="655" height="38.6" transform="matrix(1.0, 0.0, 0.0, 1.0, 0.3, -0.1)" width="27.7" xlink:href="#sprite0"/>
    <use ffdec:characterId="653" height="8.55" transform="matrix(1.0, 0.0, 0.0, 1.0, 7.5, -0.05)" width="13.4" xlink:href="#sprite1"/>
    <use ffdec:characterId="652" height="7.9" transform="matrix(1.0, 0.0, 0.0, 1.0, 7.4, 10.3)" width="13.4" xlink:href="#sprite2"/>
    <use ffdec:characterId="650" height="18.5" transform="matrix(1.0, 0.0, 0.0, 1.0, 0.35, 20.0)" width="27.7" xlink:href="#sprite3"/>
  </g>
  <defs>
    <g id="sprite0" transform="matrix(1.0, 0.0, 0.0, 1.0, 0.0, 0.0)">
      <use ffdec:characterId="654" height="38.6" transform="matrix(1.0, 0.0, 0.0, 1.0, 0.0, 0.0)" width="27.7" xlink:href="#shape0"/>
    </g>
    <g id="shape0" transform="matrix(1.0, 0.0, 0.0, 1.0, 0.0, 0.0)">
      <path d="M20.55 10.35 L20.55 18.25 7.15 18.25 7.15 10.35 20.55 10.35 M20.55 20.1 L20.55 20.25 27.7 20.25 13.85 38.6 0.0 20.25 7.15 20.25 7.15 20.1 20.55 20.1 M20.55 0.0 L20.55 8.55 7.15 8.5 7.15 0.0 20.55 0.0" fill="#ad8730" fill-rule="evenodd" stroke="none"/>
    </g>
    <g id="sprite1" transform="matrix(1.0, 0.0, 0.0, 1.0, -7.45, 0.1)">
      <use ffdec:characterId="651" height="7.9" transform="matrix(1.0, 0.0, 0.0, 1.0823, 7.45, -0.1067)" width="13.4" xlink:href="#shape1"/>
    </g>
    <g id="shape1" transform="matrix(1.0, 0.0, 0.0, 1.0, -7.45, -10.25)">
      <path d="M20.85 10.25 L20.85 18.15 7.45 18.15 7.45 10.25 20.85 10.25" fill="#ad8730" fill-rule="evenodd" stroke="none"/>
    </g>
    <g id="sprite2" transform="matrix(1.0, 0.0, 0.0, 1.0, -7.45, -10.25)">
      <use ffdec:characterId="651" height="7.9" transform="matrix(1.0, 0.0, 0.0, 1.0, 7.45, 10.25)" width="13.4" xlink:href="#shape1"/>
    </g>
    <g id="sprite3" transform="matrix(1.0, 0.0, 0.0, 1.0, -0.3, -20.0)">
      <use ffdec:characterId="649" height="18.5" transform="matrix(1.0, 0.0, 0.0, 1.0, 0.3, 20.0)" width="27.7" xlink:href="#shape2"/>
    </g>
    <g id="shape2" transform="matrix(1.0, 0.0, 0.0, 1.0, -0.3, -20.0)">
      <path d="M20.85 20.15 L28.0 20.15 14.15 38.5 0.3 20.15 7.45 20.15 7.45 20.0 20.85 20.0 20.85 20.15" fill="#ad8730" fill-rule="evenodd" stroke="none"/>
    </g>
  </defs>
</svg>
